                        <svg xmlns="http://www.w3.org/2000/svg" xmlns:xlink="http://www.w3.org/1999/xlink"
                            width="1660.988" height="385.992" viewBox="0 0 1660.988 385.992">
                            <defs>
                                <clipPath id="clip-path">
                                    <rect id="Rectángulo_141" data-name="Rectángulo 141" width="22.045" height="22.116"
                                        fill="#7da0fa" />
                                </clipPath>
                            </defs>
                            <g id="Grupo_295" data-name="Grupo 295" transform="translate(-40 -80.623)">
                                <line id="Línea_28" data-name="Línea 28" y2="327"
                                    transform="translate(578.488 110)" fill="none" stroke="#7da0fa"
                                    stroke-width="7" />
                                <path id="Trazado_28" data-name="Trazado 28"
                                    d="M331,168.508H0V44.637l1.5-.873a320.564,320.564,0,0,1,328.059,3.125L331,47.77ZM6.029,162.479H324.971V51.163A313.507,313.507,0,0,0,6.029,48.1Z"
                                    transform="translate(40 439) rotate(-90)" fill="#7da0fa" />
                                <g id="Grupo_263" data-name="Grupo 263">
                                    <path id="Trazado_29" data-name="Trazado 29"
                                        d="M141.672,159.342v-12.1l-.159-.214a12.053,12.053,0,0,0-6.84-4.872,10.176,10.176,0,0,0-1.211-.208l-.186,1.633a8.7,8.7,0,0,1,1.014.175,10.481,10.481,0,0,1,5.738,4.028v11.586a4.937,4.937,0,0,0-4.028,4.85v25.228H98.6V164.219a4.941,4.941,0,0,0-4.094-4.861V147.783a10.481,10.481,0,0,1,5.738-4.028,8.811,8.811,0,0,1,1.008-.175l-.181-1.633a9.99,9.99,0,0,0-1.211.208,12.053,12.053,0,0,0-6.84,4.872l-.159.214v12.112a4.939,4.939,0,0,0-4.127,4.867v26.05a4.936,4.936,0,0,0,3.831,4.807c-.016.186-.027.378-.027.57a6.2,6.2,0,0,0,6.2,6.193h37.126a6.2,6.2,0,0,0,6.193-6.193c0-.192-.011-.378-.027-.565a4.952,4.952,0,0,0,3.836-4.812v-26.05a4.939,4.939,0,0,0-4.193-4.878M90.378,190.269v-26.05a3.288,3.288,0,1,1,6.577,0V189.71a6.2,6.2,0,0,0-4.023,3.765,3.291,3.291,0,0,1-2.554-3.206m45.484,9.925H98.736a4.556,4.556,0,0,1-4.554-4.549c0-.159.011-.318.022-.477a4.567,4.567,0,0,1,2.477-3.584,4.464,4.464,0,0,1,1.847-.488c.071-.005.137-.005.208-.005h37.126c.071,0,.137,0,.208.005a4.464,4.464,0,0,1,1.847.488,4.555,4.555,0,0,1,2.472,3.584c.011.159.022.318.022.477a4.552,4.552,0,0,1-4.549,4.549m8.358-9.925a3.3,3.3,0,0,1-2.559,3.206,6.193,6.193,0,0,0-4.017-3.765V164.219a3.288,3.288,0,1,1,6.577,0Z"
                                        transform="translate(-24.15 479.102) rotate(-90)" fill="#7da0fa" />
                                    <g id="Grupo_262" data-name="Grupo 262">
                                        <path id="Trazado_30" data-name="Trazado 30"
                                            d="M125.321,94.285a18.653,18.653,0,1,0,7.19,1.42,18.774,18.774,0,0,0-7.19-1.42Zm12.391,31.167a17.524,17.524,0,1,1,5.133-12.391,17.526,17.526,0,0,1-5.133,12.391"
                                            transform="translate(-2.61 487.152) rotate(-90)" fill="#7da0fa" />
                                        <path id="Trazado_31" data-name="Trazado 31"
                                            d="M143.618,112.392h-.782a15.806,15.806,0,0,0-30.981,0h-.782v1.252h6.133a6.33,6.33,0,0,0,1.378-.153v3.292a2.8,2.8,0,0,0-.563-.1l-6.9-.531-.1,1.248.635.049a15.8,15.8,0,0,0,31.37,0l.635-.049-.1-1.248-6.9.531a2.8,2.8,0,0,0-.563.1V113.49a6.326,6.326,0,0,0,1.377.153h6.133Zm-6.851,5.535,4.99-.384a14.553,14.553,0,0,1-28.82,0l4.99.384a1.571,1.571,0,0,1,1.28.861l2.6,5.19a2.8,2.8,0,0,0,2.519,1.556h6.055a2.8,2.8,0,0,0,2.519-1.556l2.6-5.19a1.572,1.572,0,0,1,1.279-.86Zm-1.911-3.354a5.365,5.365,0,0,0-2.728,2.535l-2.336,4.671H128.6v1.252h1.582a.625.625,0,0,0,.56-.346l2.509-5.017h0a4.09,4.09,0,0,1,1.608-1.7v1.572a2.8,2.8,0,0,0-.489.688l-2.6,5.19a1.557,1.557,0,0,1-1.4.865h-6.054a1.558,1.558,0,0,1-1.4-.865l-2.6-5.19a2.813,2.813,0,0,0-.488-.688v-1.572a4.087,4.087,0,0,1,1.607,1.7l2.509,5.017a.626.626,0,0,0,.56.346h1.582v-1.252h-1.2l-2.336-4.671a5.365,5.365,0,0,0-2.728-2.535v-1.5a6.3,6.3,0,0,0,1.33-.816l.005,0h0a5.1,5.1,0,0,1,3.172-1.111h6.007a5.106,5.106,0,0,1,3.172,1.11l.005,0a6.3,6.3,0,0,0,1.33.816Zm-.543-3.292-.005,0a6.363,6.363,0,0,0-3.959-1.389h-6.007a6.363,6.363,0,0,0-3.959,1.389l-.005,0h0a5.1,5.1,0,0,1-3.172,1.111h-4.072a14.555,14.555,0,0,1,28.423,0h-4.072a5.106,5.106,0,0,1-3.172-1.11Z"
                                            transform="translate(-5.07 489.176) rotate(-90)" fill="#7da0fa" />
                                        <path id="Trazado_32" data-name="Trazado 32"
                                            d="M138.222,122.834a3.132,3.132,0,1,0,2.212.917,3.131,3.131,0,0,0-2.212-.917m0,5.007a1.881,1.881,0,1,1,1.327-.551A1.878,1.878,0,0,1,138.222,127.841Z"
                                            transform="translate(-15.513 500.053) rotate(-90)" fill="#7da0fa" />
                                        <rect id="Rectángulo_42" data-name="Rectángulo 42" width="1.252"
                                            height="1.252" transform="translate(109.199 373.722) rotate(-90)"
                                            fill="#7da0fa" />
                                        <rect id="Rectángulo_43" data-name="Rectángulo 43" width="1.252"
                                            height="1.252" transform="translate(109.199 351.191) rotate(-90)"
                                            fill="#7da0fa" />
                                        <rect id="Rectángulo_44" data-name="Rectángulo 44" width="2.504"
                                            height="1.252" transform="translate(114.831 363.082) rotate(-90)"
                                            fill="#7da0fa" />
                                    </g>
                                </g>
                                <path id="Trazado_33" data-name="Trazado 33"
                                    d="M447.25,157.253l-.192-12.463-.652-.614a26.98,26.98,0,0,0-6.232-4.691c-3.924-1.935-14.189-2.148-18.42-2.148-2.845,0-11.121.263-15.253,1.452-2.85.822-5.5,2.888-7.881,6.155l-.159.214v12.112a4.938,4.938,0,0,0-4.127,4.867v26.05a4.936,4.936,0,0,0,3.83,4.807c-.016.186-.027.378-.027.57a6.2,6.2,0,0,0,6.2,6.193h37.121a6.2,6.2,0,0,0,6.2-6.193c0-.192-.011-.384-.028-.57a4.937,4.937,0,0,0,3.832-4.807v-26.05a4.946,4.946,0,0,0-4.21-4.883m-47.144-11.559c2.116-2.833,4.423-4.626,6.851-5.327,3.507-1.008,10.934-1.387,14.8-1.387,3.211,0,13.976.142,17.692,1.979a25.252,25.252,0,0,1,5.836,4.417l.143.132.18,11.783a4.94,4.94,0,0,0-4.011,4.845v25.228H404.2V162.136a4.941,4.941,0,0,0-4.094-4.861Zm-4.127,42.492v-26.05a3.288,3.288,0,0,1,6.577,0v25.491a6.2,6.2,0,0,0-4.023,3.765,3.29,3.29,0,0,1-2.554-3.206m45.479,9.926H404.337a4.556,4.556,0,0,1-4.554-4.549c0-.159.01-.318.022-.477a4.567,4.567,0,0,1,2.477-3.584,4.461,4.461,0,0,1,1.846-.488c.072-.006.137-.006.209-.006h37.121c.071,0,.137,0,.208.006a4.484,4.484,0,0,1,1.852.488,4.546,4.546,0,0,1,1.875,1.765v.005a4.567,4.567,0,0,1,.6,1.814c.01.159.022.318.022.477a4.553,4.553,0,0,1-4.554,4.549m8.358-9.926a3.292,3.292,0,0,1-2.554,3.206,6.2,6.2,0,0,0-4.023-3.765V162.136a3.288,3.288,0,0,1,6.577,0Z"
                                    transform="translate(-22.067 617.213) rotate(-90)" fill="#7da0fa" />
                                <path id="Trazado_34" data-name="Trazado 34"
                                    d="M309.855,55.662H189.8a3.211,3.211,0,0,1-3.208-3.208V42.783a3.211,3.211,0,0,1,3.208-3.208H309.855a3.211,3.211,0,0,1,3.208,3.208v9.672a3.212,3.212,0,0,1-3.208,3.208M189.8,41.219a1.566,1.566,0,0,0-1.564,1.564v9.672a1.566,1.566,0,0,0,1.564,1.564H309.855a1.566,1.566,0,0,0,1.564-1.564V42.783a1.566,1.566,0,0,0-1.564-1.564Z"
                                    transform="translate(22.115 523.325) rotate(-90)" fill="#7da0fa" />
                                <path id="Trazado_35" data-name="Trazado 35"
                                    d="M152.235,287.368H25.729a1.008,1.008,0,1,1,0-2.015H152.235a1.008,1.008,0,1,1,0,2.015"
                                    transform="translate(-88.96 450.172) rotate(-90)" fill="#7da0fa" />
                                <path id="Trazado_36" data-name="Trazado 36"
                                    d="M472.235,287.368H345.729a1.008,1.008,0,1,1,0-2.015H472.235a1.008,1.008,0,1,1,0,2.015"
                                    transform="translate(-88.96 594.791) rotate(-90)" fill="#7da0fa" />
                                <path id="Trazado_37" data-name="Trazado 37"
                                    d="M405.7,83.368H193.178a1.008,1.008,0,1,1,0-2.015H405.7a1.008,1.008,0,1,1,0,2.015"
                                    transform="translate(3.234 525.848) rotate(-90)" fill="#7da0fa" />
                                <path id="Trazado_38" data-name="Trazado 38"
                                    d="M544.566,190.591h-9.671a3.211,3.211,0,0,1-3.208-3.208V132.229a3.211,3.211,0,0,1,3.208-3.208h9.671a3.211,3.211,0,0,1,3.208,3.208v55.155a3.211,3.211,0,0,1-3.208,3.208m-9.671-59.926a1.566,1.566,0,0,0-1.564,1.564v55.155a1.566,1.566,0,0,0,1.564,1.564h9.671a1.565,1.565,0,0,0,1.564-1.564V132.229a1.566,1.566,0,0,0-1.564-1.564Z"
                                    transform="translate(-18.309 679.287) rotate(-90)" fill="#7da0fa" />
                                <path id="Trazado_39" data-name="Trazado 39"
                                    d="M579.793,113.016H558.709a1.008,1.008,0,1,1,0-2.015h21.084a1.008,1.008,0,1,1,0,2.015"
                                    transform="translate(-10.165 691.044) rotate(-90)" fill="#7da0fa" />
                                <path id="Trazado_40" data-name="Trazado 40"
                                    d="M579.793,257.721H558.709a1.008,1.008,0,1,1,0-2.015h21.084a1.008,1.008,0,1,1,0,2.015"
                                    transform="translate(-75.562 691.044) rotate(-90)" fill="#7da0fa" />
                                <g id="Rectángulo_46" data-name="Rectángulo 46" transform="translate(202.988 108)"
                                    fill="none" stroke="#7da0fa" stroke-width="7">
                                    <path
                                        d="M0,0H1494a4,4,0,0,1,4,4V331a0,0,0,0,1,0,0H4a4,4,0,0,1-4-4V0A0,0,0,0,1,0,0Z"
                                        stroke="none" />
                                    <path
                                        d="M3.5,3.5H1494a.5.5,0,0,1,.5.5V327.5a0,0,0,0,1,0,0H4a.5.5,0,0,1-.5-.5V3.5A0,0,0,0,1,3.5,3.5Z"
                                        fill="none" />
                                </g>
                                <text id="CD1" transform="translate(132.988 366)" fill="#7da0fa"
                                    font-size="15" font-family="NunitoSans-SemiBold, Nunito Sans" font-weight="600">
                                    <tspan x="0" y="0">CD1</tspan>
                                </text>
                                <text id="CD2" transform="translate(128.988 200)" fill="#7da0fa"
                                    font-size="15" font-family="NunitoSans-SemiBold, Nunito Sans" font-weight="600">
                                    <tspan x="0" y="0">CD2</tspan>
                                </text>
                                <g id="Grupo_218" data-name="Grupo 218" transform="translate(64.943 80.623)"
                                    clip-path="url(#clip-path)">
                                    <path id="Trazado_90" data-name="Trazado 90"
                                        d="M0,11.057A11.058,11.058,0,0,1,11.021,0V11.095H22.045V22.116H11.021A11.06,11.06,0,0,1,0,11.057"
                                        transform="translate(0 0)" fill="#7da0fa" />
                                </g>
                                <g id="Grupo_218-2" data-name="Grupo 218" transform="translate(64.943 444.5)"
                                    clip-path="url(#clip-path)">
                                    <path id="Trazado_90-2" data-name="Trazado 90"
                                        d="M0,11.059A11.058,11.058,0,0,0,11.021,22.116V11.021H22.045V0H11.021A11.06,11.06,0,0,0,0,11.059"
                                        transform="translate(0 0)" fill="#7da0fa" />
                                </g>
                            </g>
                        </svg>